<svg width="937" height="33" viewBox="0 0 937 33" version="1.1" xmlns="http://www.w3.org/2000/svg" xmlns:xlink="http://www.w3.org/1999/xlink">
<title>footer</title>
<desc>Created using Figma</desc>
<g id="Canvas" transform="translate(7552 -3280)">
<g id="footer">
<g id="@_wordyallen">
<use xlink:href="#path0_fill" transform="translate(-6718 3286)" fill="#BDBDBD"/>
</g>
<g id="www.iot-engineering.life">
<use xlink:href="#path1_fill" transform="translate(-7163 3286)" fill="#BDBDBD"/>
</g>
<g id="if_43-twitter_104461">
<g id="Vector">
<use xlink:href="#path2_fill" transform="translate(-6741 3286)" fill="#E0E0E0"/>
</g>
</g>
<g id="gray_logo">
<g id="Vector">
<use xlink:href="#path3_fill" transform="translate(-7524.48 3286.08)" fill="#B6B8BA"/>
<use xlink:href="#path4_fill" transform="translate(-7524.48 3286.08)" fill="#B6B8BA"/>
<use xlink:href="#path5_fill" transform="translate(-7524.48 3286.08)" fill="#B6B8BA"/>
<use xlink:href="#path6_fill" transform="translate(-7524.48 3286.08)" fill="#B6B8BA"/>
</g>
<g id="Vector">
<use xlink:href="#path7_fill" transform="translate(-7546.56 3307.52)" fill="#B6B8BA"/>
<use xlink:href="#path8_fill" transform="translate(-7546.56 3307.52)" fill="#B6B8BA"/>
<use xlink:href="#path9_fill" transform="translate(-7546.56 3307.52)" fill="#B6B8BA"/>
<use xlink:href="#path10_fill" transform="translate(-7546.56 3307.52)" fill="#B6B8BA"/>
</g>
<g id="Vector">
<use xlink:href="#path11_fill" transform="translate(-7545.92 3280)" fill="#B6B8BA"/>
<use xlink:href="#path12_fill" transform="translate(-7545.92 3280)" fill="#B6B8BA"/>
<use xlink:href="#path13_fill" transform="translate(-7545.92 3280)" fill="#B6B8BA"/>
<use xlink:href="#path14_fill" transform="translate(-7545.92 3280)" fill="#B6B8BA"/>
</g>
<g id="Vector">
<use xlink:href="#path15_fill" transform="translate(-7552 3285.44)" fill="#B6B8BA"/>
<use xlink:href="#path16_fill" transform="translate(-7552 3285.44)" fill="#B6B8BA"/>
<use xlink:href="#path17_fill" transform="translate(-7552 3285.44)" fill="#B6B8BA"/>
<use xlink:href="#path18_fill" transform="translate(-7552 3285.44)" fill="#B6B8BA"/>
</g>
<g id="Rectangle" filter="url(#filter0_d)">
<use xlink:href="#path19_fill" transform="translate(-7548.8 3283.2)" fill="#D4D4D7"/>
</g>
<g id="Rectangle 2">
<use xlink:href="#path20_fill" transform="translate(-7545.92 3286.08)" fill="#FFFFFF"/>
</g>
</g>
</g>
</g>
<defs>
<filter id="filter0_d" filterUnits="userSpaceOnUse" x="-7551" y="3283" width="30" height="30" color-interpolation-filters="sRGB">
<feFlood flood-opacity="0" result="BackgroundImageFix"/>
<feColorMatrix in="SourceAlpha" type="matrix" values="0 0 0 0 0 0 0 0 0 0 0 0 0 0 0 0 0 0 255 0"/>
<feOffset dx="0" dy="2"/>
<feGaussianBlur stdDeviation="1"/>
<feColorMatrix type="matrix" values="0 0 0 0 0 0 0 0 0 0 0 0 0 0 0 0 0 0 0.12 0"/>
<feBlend mode="normal" in2="BackgroundImageFix" result="effect1_dropShadow"/>
<feBlend mode="normal" in="SourceGraphic" in2="effect1_dropShadow" result="shape"/>
</filter>
<path id="path0_fill" d="M 11.04 14.312C 10.6987 14.312 10.416 14.264 10.192 14.168C 9.968 14.072 9.78133 13.944 9.632 13.784C 9.39733 13.912 9.11467 14.024 8.784 14.12C 8.45333 14.2053 8.12267 14.248 7.792 14.248C 7.28 14.248 6.81067 14.168 6.384 14.008C 5.968 13.848 5.60533 13.6133 5.296 13.304C 4.98667 12.984 4.74667 12.5947 4.576 12.136C 4.40533 11.6773 4.32 11.144 4.32 10.536C 4.32 10.024 4.4 9.544 4.56 9.096C 4.72 8.63733 4.95467 8.24267 5.264 7.912C 5.584 7.57067 5.968 7.304 6.416 7.112C 6.87467 6.92 7.392 6.824 7.968 6.824C 8.512 6.824 9.008 6.86667 9.456 6.952C 9.91467 7.03733 10.2667 7.12267 10.512 7.208L 10.512 12.104C 10.512 12.4453 10.5707 12.6853 10.688 12.824C 10.8053 12.9627 10.96 13.032 11.152 13.032C 11.4293 13.032 11.6693 12.936 11.872 12.744C 12.0853 12.552 12.256 12.3013 12.384 11.992C 12.5227 11.6827 12.624 11.336 12.688 10.952C 12.752 10.5573 12.784 10.1573 12.784 9.752C 12.784 9.08 12.6667 8.45067 12.432 7.864C 12.1973 7.26667 11.8613 6.744 11.424 6.296C 10.9867 5.848 10.4533 5.496 9.824 5.24C 9.20533 4.984 8.50667 4.856 7.728 4.856C 6.94933 4.856 6.23467 4.98933 5.584 5.256C 4.93333 5.512 4.37333 5.88533 3.904 6.376C 3.43467 6.856 3.06667 7.448 2.8 8.152C 2.544 8.856 2.416 9.656 2.416 10.552C 2.416 11.4907 2.55467 12.3173 2.832 13.032C 3.10933 13.736 3.49333 14.328 3.984 14.808C 4.48533 15.2773 5.072 15.6293 5.744 15.864C 6.42667 16.1093 7.17333 16.232 7.984 16.232C 8.61333 16.232 9.13067 16.1947 9.536 16.12C 9.952 16.0453 10.2187 15.9867 10.336 15.944L 10.496 17.128C 10.3147 17.192 9.984 17.2613 9.504 17.336C 9.03467 17.4107 8.528 17.448 7.984 17.448C 7.03467 17.448 6.13867 17.3093 5.296 17.032C 4.45333 16.7653 3.71733 16.3493 3.088 15.784C 2.45867 15.2293 1.95733 14.52 1.584 13.656C 1.22133 12.7813 1.04 11.7467 1.04 10.552C 1.04 9.4 1.22133 8.392 1.584 7.528C 1.94667 6.664 2.432 5.94933 3.04 5.384C 3.65867 4.808 4.368 4.376 5.168 4.088C 5.97867 3.8 6.832 3.656 7.728 3.656C 8.60267 3.656 9.42933 3.8 10.208 4.088C 10.9867 4.36533 11.6693 4.776 12.256 5.32C 12.8427 5.85333 13.3067 6.504 13.648 7.272C 13.9893 8.02933 14.16 8.888 14.16 9.848C 14.16 10.5733 14.0747 11.2133 13.904 11.768C 13.744 12.3227 13.5253 12.792 13.248 13.176C 12.9707 13.5493 12.64 13.832 12.256 14.024C 11.872 14.216 11.4667 14.312 11.04 14.312ZM 7.84 13.016C 8.064 13.016 8.288 12.9947 8.512 12.952C 8.74667 12.8987 8.95467 12.824 9.136 12.728C 9.104 12.5893 9.08267 12.4507 9.072 12.312C 9.06133 12.1733 9.056 12.04 9.056 11.912L 9.056 8.152C 8.992 8.13067 8.86933 8.10933 8.688 8.088C 8.50667 8.06667 8.304 8.056 8.08 8.056C 7.32267 8.056 6.75733 8.29067 6.384 8.76C 6.01067 9.22933 5.824 9.82133 5.824 10.536C 5.824 11.2933 6.00533 11.896 6.368 12.344C 6.73067 12.792 7.22133 13.016 7.84 13.016ZM 15.1391 16.696L 23.1391 16.696L 23.1391 17.96L 15.1391 17.96L 15.1391 16.696ZM 31.1581 15C 30.8595 14.232 30.5395 13.3573 30.1981 12.376C 29.8675 11.384 29.5635 10.3547 29.2861 9.288C 29.0088 10.3547 28.7048 11.384 28.3741 12.376C 28.0435 13.3573 27.7288 14.232 27.4301 15L 26.1341 15C 25.6435 13.9013 25.1635 12.648 24.6941 11.24C 24.2248 9.832 23.7821 8.312 23.3661 6.68L 24.9661 6.68C 25.0728 7.18133 25.2008 7.72533 25.3501 8.312C 25.4995 8.89867 25.6541 9.48533 25.8141 10.072C 25.9848 10.6587 26.1608 11.224 26.3421 11.768C 26.5235 12.312 26.6941 12.7867 26.8541 13.192C 27.0355 12.6907 27.2115 12.1627 27.3821 11.608C 27.5635 11.0427 27.7341 10.4773 27.8941 9.912C 28.0541 9.336 28.2035 8.776 28.3421 8.232C 28.4915 7.67733 28.6195 7.16 28.7261 6.68L 29.9581 6.68C 30.0541 7.16 30.1715 7.67733 30.3101 8.232C 30.4488 8.776 30.5981 9.336 30.7581 9.912C 30.9181 10.4773 31.0835 11.0427 31.2541 11.608C 31.4355 12.1627 31.6168 12.6907 31.7981 13.192C 31.9581 12.7867 32.1235 12.312 32.2941 11.768C 32.4755 11.224 32.6515 10.6587 32.8221 10.072C 32.9928 9.48533 33.1528 8.89867 33.3021 8.312C 33.4515 7.72533 33.5795 7.18133 33.6861 6.68L 35.2221 6.68C 34.8061 8.312 34.3635 9.832 33.8941 11.24C 33.4248 12.648 32.9448 13.9013 32.4541 15L 31.1581 15ZM 43.9521 10.84C 43.9521 11.5013 43.8561 12.0987 43.6641 12.632C 43.4721 13.1653 43.2001 13.624 42.8481 14.008C 42.5068 14.392 42.0961 14.6907 41.6161 14.904C 41.1361 15.1067 40.6135 15.208 40.0481 15.208C 39.4828 15.208 38.9601 15.1067 38.4801 14.904C 38.0001 14.6907 37.5841 14.392 37.2321 14.008C 36.8908 13.624 36.6241 13.1653 36.4321 12.632C 36.2401 12.0987 36.1441 11.5013 36.1441 10.84C 36.1441 10.1893 36.2401 9.59733 36.4321 9.064C 36.6241 8.52 36.8908 8.056 37.2321 7.672C 37.5841 7.288 38.0001 6.99467 38.4801 6.792C 38.9601 6.57867 39.4828 6.472 40.0481 6.472C 40.6135 6.472 41.1361 6.57867 41.6161 6.792C 42.0961 6.99467 42.5068 7.288 42.8481 7.672C 43.2001 8.056 43.4721 8.52 43.6641 9.064C 43.8561 9.59733 43.9521 10.1893 43.9521 10.84ZM 42.4001 10.84C 42.4001 9.90133 42.1868 9.16 41.7601 8.616C 41.3441 8.06133 40.7735 7.784 40.0481 7.784C 39.3228 7.784 38.7468 8.06133 38.3201 8.616C 37.9041 9.16 37.6961 9.90133 37.6961 10.84C 37.6961 11.7787 37.9041 12.5253 38.3201 13.08C 38.7468 13.624 39.3228 13.896 40.0481 13.896C 40.7735 13.896 41.3441 13.624 41.7601 13.08C 42.1868 12.5253 42.4001 11.7787 42.4001 10.84ZM 49.1176 6.504C 49.2456 6.504 49.3896 6.51467 49.5496 6.536C 49.7203 6.54667 49.8856 6.568 50.0456 6.6C 50.2056 6.62133 50.3496 6.648 50.4776 6.68C 50.6163 6.70133 50.7176 6.72267 50.7816 6.744L 50.5256 8.04C 50.4083 7.99733 50.211 7.94933 49.9336 7.896C 49.667 7.832 49.3203 7.8 48.8936 7.8C 48.6163 7.8 48.339 7.832 48.0616 7.896C 47.795 7.94933 47.619 7.98667 47.5336 8.008L 47.5336 15L 46.0456 15L 46.0456 7.032C 46.3976 6.904 46.835 6.78667 47.3576 6.68C 47.8803 6.56267 48.467 6.504 49.1176 6.504ZM 57.5935 8.44C 57.4122 8.29067 57.1508 8.14667 56.8095 8.008C 56.4682 7.86933 56.0948 7.8 55.6895 7.8C 55.2628 7.8 54.8948 7.88 54.5855 8.04C 54.2868 8.18933 54.0415 8.40267 53.8495 8.68C 53.6575 8.94667 53.5188 9.26667 53.4335 9.64C 53.3482 10.0133 53.3055 10.4133 53.3055 10.84C 53.3055 11.8107 53.5455 12.5627 54.0255 13.096C 54.5055 13.6187 55.1455 13.88 55.9455 13.88C 56.3508 13.88 56.6868 13.864 56.9535 13.832C 57.2308 13.7893 57.4442 13.7467 57.5935 13.704L 57.5935 8.44ZM 57.5935 2.84L 59.0815 2.584L 59.0815 14.76C 58.7402 14.856 58.3028 14.952 57.7695 15.048C 57.2362 15.144 56.6228 15.192 55.9295 15.192C 55.2895 15.192 54.7135 15.0907 54.2015 14.888C 53.6895 14.6853 53.2522 14.3973 52.8895 14.024C 52.5268 13.6507 52.2442 13.1973 52.0415 12.664C 51.8495 12.12 51.7535 11.512 51.7535 10.84C 51.7535 10.2 51.8335 9.61333 51.9935 9.08C 52.1642 8.54667 52.4095 8.088 52.7295 7.704C 53.0495 7.32 53.4388 7.02133 53.8975 6.808C 54.3668 6.59467 54.9002 6.488 55.4975 6.488C 55.9775 6.488 56.3988 6.552 56.7615 6.68C 57.1348 6.808 57.4122 6.93067 57.5935 7.048L 57.5935 2.84ZM 60.6634 16.552C 60.7807 16.6053 60.93 16.6533 61.1114 16.696C 61.3034 16.7493 61.49 16.776 61.6714 16.776C 62.258 16.776 62.7167 16.6427 63.0474 16.376C 63.378 16.12 63.6767 15.6987 63.9434 15.112C 63.2714 13.832 62.642 12.4773 62.0554 11.048C 61.4794 9.608 60.9994 8.152 60.6154 6.68L 62.2154 6.68C 62.3327 7.16 62.4714 7.67733 62.6314 8.232C 62.802 8.78667 62.9887 9.35733 63.1914 9.944C 63.394 10.5307 63.6127 11.1173 63.8474 11.704C 64.082 12.2907 64.3274 12.856 64.5834 13.4C 64.9887 12.28 65.3407 11.1707 65.6394 10.072C 65.938 8.97333 66.2207 7.84267 66.4874 6.68L 68.0234 6.68C 67.6394 8.248 67.2127 9.75733 66.7434 11.208C 66.274 12.648 65.7674 13.9973 65.2234 15.256C 65.01 15.736 64.786 16.1467 64.5514 16.488C 64.3274 16.84 64.0767 17.128 63.7994 17.352C 63.522 17.576 63.2074 17.7413 62.8554 17.848C 62.514 17.9547 62.1247 18.008 61.6874 18.008C 61.57 18.008 61.4474 17.9973 61.3194 17.976C 61.1914 17.9653 61.0634 17.944 60.9354 17.912C 60.818 17.8907 60.706 17.864 60.5994 17.832C 60.5034 17.8 60.434 17.7733 60.3914 17.752L 60.6634 16.552ZM 72.4085 13.928C 72.7605 13.928 73.0698 13.9227 73.3365 13.912C 73.6138 13.8907 73.8432 13.8587 74.0245 13.816L 74.0245 11.336C 73.9178 11.2827 73.7418 11.24 73.4965 11.208C 73.2618 11.1653 72.9738 11.144 72.6325 11.144C 72.4085 11.144 72.1685 11.16 71.9125 11.192C 71.6672 11.224 71.4378 11.2933 71.2245 11.4C 71.0218 11.496 70.8512 11.6347 70.7125 11.816C 70.5738 11.9867 70.5045 12.216 70.5045 12.504C 70.5045 13.0373 70.6752 13.4107 71.0165 13.624C 71.3578 13.8267 71.8218 13.928 72.4085 13.928ZM 72.2805 6.472C 72.8778 6.472 73.3792 6.552 73.7845 6.712C 74.2005 6.86133 74.5312 7.08 74.7765 7.368C 75.0325 7.64533 75.2138 7.98133 75.3205 8.376C 75.4272 8.76 75.4805 9.18667 75.4805 9.656L 75.4805 14.856C 75.3525 14.8773 75.1712 14.9093 74.9365 14.952C 74.7125 14.984 74.4565 15.016 74.1685 15.048C 73.8805 15.08 73.5658 15.1067 73.2245 15.128C 72.8938 15.16 72.5632 15.176 72.2325 15.176C 71.7632 15.176 71.3312 15.128 70.9365 15.032C 70.5418 14.936 70.2005 14.7867 69.9125 14.584C 69.6245 14.3707 69.4005 14.0933 69.2405 13.752C 69.0805 13.4107 69.0005 13 69.0005 12.52C 69.0005 12.0613 69.0912 11.6667 69.2725 11.336C 69.4645 11.0053 69.7205 10.7387 70.0405 10.536C 70.3605 10.3333 70.7338 10.184 71.1605 10.088C 71.5872 9.992 72.0352 9.944 72.5045 9.944C 72.6538 9.944 72.8085 9.95467 72.9685 9.976C 73.1285 9.98667 73.2778 10.008 73.4165 10.04C 73.5658 10.0613 73.6938 10.0827 73.8005 10.104C 73.9072 10.1253 73.9818 10.1413 74.0245 10.152L 74.0245 9.736C 74.0245 9.49067 73.9978 9.25067 73.9445 9.016C 73.8912 8.77067 73.7952 8.55733 73.6565 8.376C 73.5178 8.184 73.3258 8.03467 73.0805 7.928C 72.8458 7.81067 72.5365 7.752 72.1525 7.752C 71.6618 7.752 71.2298 7.78933 70.8565 7.864C 70.4938 7.928 70.2218 7.99733 70.0405 8.072L 69.8645 6.84C 70.0565 6.75467 70.3765 6.67467 70.8245 6.6C 71.2725 6.51467 71.7578 6.472 72.2805 6.472ZM 80.4479 15.16C 79.5305 15.1387 78.8799 14.9413 78.4959 14.568C 78.1119 14.1947 77.9199 13.6133 77.9199 12.824L 77.9199 2.84L 79.4079 2.584L 79.4079 12.584C 79.4079 12.8293 79.4292 13.032 79.4719 13.192C 79.5145 13.352 79.5839 13.48 79.6799 13.576C 79.7759 13.672 79.9039 13.7467 80.0639 13.8C 80.2239 13.8427 80.4212 13.88 80.6559 13.912L 80.4479 15.16ZM 84.8229 15.16C 83.9055 15.1387 83.2549 14.9413 82.8709 14.568C 82.4869 14.1947 82.2949 13.6133 82.2949 12.824L 82.2949 2.84L 83.7829 2.584L 83.7829 12.584C 83.7829 12.8293 83.8042 13.032 83.8469 13.192C 83.8895 13.352 83.9589 13.48 84.0549 13.576C 84.1509 13.672 84.2789 13.7467 84.4389 13.8C 84.5989 13.8427 84.7962 13.88 85.0309 13.912L 84.8229 15.16ZM 86.2379 10.856C 86.2379 10.12 86.3445 9.48 86.5579 8.936C 86.7712 8.38133 87.0539 7.92267 87.4059 7.56C 87.7579 7.19733 88.1632 6.92533 88.6219 6.744C 89.0805 6.56267 89.5499 6.472 90.0299 6.472C 91.1499 6.472 92.0085 6.824 92.6059 7.528C 93.2032 8.22133 93.5019 9.28267 93.5019 10.712C 93.5019 10.776 93.5019 10.8613 93.5019 10.968C 93.5019 11.064 93.4965 11.1547 93.4859 11.24L 87.7899 11.24C 87.8539 12.104 88.1045 12.76 88.5419 13.208C 88.9792 13.656 89.6619 13.88 90.5899 13.88C 91.1125 13.88 91.5499 13.8373 91.9019 13.752C 92.2645 13.656 92.5365 13.5653 92.7179 13.48L 92.9259 14.728C 92.7445 14.824 92.4245 14.9253 91.9659 15.032C 91.5179 15.1387 91.0059 15.192 90.4299 15.192C 89.7045 15.192 89.0752 15.0853 88.5419 14.872C 88.0192 14.648 87.5872 14.344 87.2459 13.96C 86.9045 13.576 86.6485 13.1227 86.4779 12.6C 86.3179 12.0667 86.2379 11.4853 86.2379 10.856ZM 91.9499 10.04C 91.9605 9.368 91.7899 8.81867 91.4379 8.392C 91.0965 7.95467 90.6219 7.736 90.0139 7.736C 89.6725 7.736 89.3685 7.80533 89.1019 7.944C 88.8459 8.072 88.6272 8.24267 88.4459 8.456C 88.2645 8.66933 88.1205 8.91467 88.0139 9.192C 87.9179 9.46933 87.8539 9.752 87.8219 10.04L 91.9499 10.04ZM 95.6394 6.92C 95.9807 6.83467 96.434 6.744 96.9994 6.648C 97.5647 6.552 98.2154 6.504 98.9514 6.504C 99.6127 6.504 100.162 6.6 100.599 6.792C 101.037 6.97333 101.383 7.23467 101.639 7.576C 101.906 7.90667 102.093 8.30667 102.199 8.776C 102.306 9.24533 102.359 9.76267 102.359 10.328L 102.359 15L 100.871 15L 100.871 10.648C 100.871 10.136 100.834 9.69867 100.759 9.336C 100.695 8.97333 100.583 8.68 100.423 8.456C 100.263 8.232 100.05 8.072 99.7834 7.976C 99.5167 7.86933 99.186 7.816 98.7914 7.816C 98.6314 7.816 98.466 7.82133 98.2954 7.832C 98.1247 7.84267 97.9594 7.85867 97.7994 7.88C 97.65 7.89067 97.5114 7.90667 97.3834 7.928C 97.266 7.94933 97.1807 7.96533 97.1274 7.976L 97.1274 15L 95.6394 15L 95.6394 6.92Z"/>
<path id="path1_fill" d="M 8.08 15C 7.78133 14.232 7.46133 13.3573 7.12 12.376C 6.78933 11.384 6.48533 10.3547 6.208 9.288C 5.93067 10.3547 5.62667 11.384 5.296 12.376C 4.96533 13.3573 4.65067 14.232 4.352 15L 3.056 15C 2.56533 13.9013 2.08533 12.648 1.616 11.24C 1.14667 9.832 0.704 8.312 0.288 6.68L 1.888 6.68C 1.99467 7.18133 2.12267 7.72533 2.272 8.312C 2.42133 8.89867 2.576 9.48533 2.736 10.072C 2.90667 10.6587 3.08267 11.224 3.264 11.768C 3.44533 12.312 3.616 12.7867 3.776 13.192C 3.95733 12.6907 4.13333 12.1627 4.304 11.608C 4.48533 11.0427 4.656 10.4773 4.816 9.912C 4.976 9.336 5.12533 8.776 5.264 8.232C 5.41333 7.67733 5.54133 7.16 5.648 6.68L 6.88 6.68C 6.976 7.16 7.09333 7.67733 7.232 8.232C 7.37067 8.776 7.52 9.336 7.68 9.912C 7.84 10.4773 8.00533 11.0427 8.176 11.608C 8.35733 12.1627 8.53867 12.6907 8.72 13.192C 8.88 12.7867 9.04533 12.312 9.216 11.768C 9.39733 11.224 9.57333 10.6587 9.744 10.072C 9.91467 9.48533 10.0747 8.89867 10.224 8.312C 10.3733 7.72533 10.5013 7.18133 10.608 6.68L 12.144 6.68C 11.728 8.312 11.2853 9.832 10.816 11.24C 10.3467 12.648 9.86667 13.9013 9.376 15L 8.08 15ZM 20.7831 15C 20.4845 14.232 20.1645 13.3573 19.8231 12.376C 19.4925 11.384 19.1885 10.3547 18.9111 9.288C 18.6338 10.3547 18.3298 11.384 17.9991 12.376C 17.6685 13.3573 17.3538 14.232 17.0551 15L 15.7591 15C 15.2685 13.9013 14.7885 12.648 14.3191 11.24C 13.8498 9.832 13.4071 8.312 12.9911 6.68L 14.5911 6.68C 14.6978 7.18133 14.8258 7.72533 14.9751 8.312C 15.1245 8.89867 15.2791 9.48533 15.4391 10.072C 15.6098 10.6587 15.7858 11.224 15.9671 11.768C 16.1485 12.312 16.3191 12.7867 16.4791 13.192C 16.6605 12.6907 16.8365 12.1627 17.0071 11.608C 17.1885 11.0427 17.3591 10.4773 17.5191 9.912C 17.6791 9.336 17.8285 8.776 17.9671 8.232C 18.1165 7.67733 18.2445 7.16 18.3511 6.68L 19.5831 6.68C 19.6791 7.16 19.7965 7.67733 19.9351 8.232C 20.0738 8.776 20.2231 9.336 20.3831 9.912C 20.5431 10.4773 20.7085 11.0427 20.8791 11.608C 21.0605 12.1627 21.2418 12.6907 21.4231 13.192C 21.5831 12.7867 21.7485 12.312 21.9191 11.768C 22.1005 11.224 22.2765 10.6587 22.4471 10.072C 22.6178 9.48533 22.7778 8.89867 22.9271 8.312C 23.0765 7.72533 23.2045 7.18133 23.3111 6.68L 24.8471 6.68C 24.4311 8.312 23.9885 9.832 23.5191 11.24C 23.0498 12.648 22.5698 13.9013 22.0791 15L 20.7831 15ZM 33.4862 15C 33.1876 14.232 32.8676 13.3573 32.5262 12.376C 32.1956 11.384 31.8916 10.3547 31.6142 9.288C 31.3369 10.3547 31.0329 11.384 30.7022 12.376C 30.3716 13.3573 30.0569 14.232 29.7583 15L 28.4623 15C 27.9716 13.9013 27.4916 12.648 27.0222 11.24C 26.5529 9.832 26.1103 8.312 25.6943 6.68L 27.2943 6.68C 27.4009 7.18133 27.5289 7.72533 27.6782 8.312C 27.8276 8.89867 27.9823 9.48533 28.1423 10.072C 28.3129 10.6587 28.4889 11.224 28.6702 11.768C 28.8516 12.312 29.0222 12.7867 29.1822 13.192C 29.3636 12.6907 29.5396 12.1627 29.7103 11.608C 29.8916 11.0427 30.0622 10.4773 30.2222 9.912C 30.3822 9.336 30.5316 8.776 30.6702 8.232C 30.8196 7.67733 30.9476 7.16 31.0542 6.68L 32.2863 6.68C 32.3822 7.16 32.4996 7.67733 32.6382 8.232C 32.7769 8.776 32.9263 9.336 33.0862 9.912C 33.2463 10.4773 33.4116 11.0427 33.5823 11.608C 33.7636 12.1627 33.9449 12.6907 34.1262 13.192C 34.2862 12.7867 34.4516 12.312 34.6223 11.768C 34.8036 11.224 34.9796 10.6587 35.1502 10.072C 35.3209 9.48533 35.4809 8.89867 35.6303 8.312C 35.7796 7.72533 35.9076 7.18133 36.0143 6.68L 37.5502 6.68C 37.1342 8.312 36.6916 9.832 36.2223 11.24C 35.7529 12.648 35.2729 13.9013 34.7822 15L 33.4862 15ZM 40.3681 14.136C 40.3681 14.424 40.2721 14.6747 40.0801 14.888C 39.8881 15.1013 39.6268 15.208 39.2961 15.208C 38.9655 15.208 38.7041 15.1013 38.5121 14.888C 38.3201 14.6747 38.2241 14.424 38.2241 14.136C 38.2241 13.848 38.3201 13.5973 38.5121 13.384C 38.7041 13.1707 38.9655 13.064 39.2961 13.064C 39.6268 13.064 39.8881 13.1707 40.0801 13.384C 40.2721 13.5973 40.3681 13.848 40.3681 14.136ZM 44.0336 15L 42.5456 15L 42.5456 6.68L 44.0336 6.68L 44.0336 15ZM 43.2816 5.176C 43.015 5.176 42.7856 5.09067 42.5936 4.92C 42.4123 4.73867 42.3216 4.49867 42.3216 4.2C 42.3216 3.90133 42.4123 3.66667 42.5936 3.496C 42.7856 3.31467 43.015 3.224 43.2816 3.224C 43.5483 3.224 43.7723 3.31467 43.9536 3.496C 44.1456 3.66667 44.2416 3.90133 44.2416 4.2C 44.2416 4.49867 44.1456 4.73867 43.9536 4.92C 43.7723 5.09067 43.5483 5.176 43.2816 5.176ZM 53.9365 10.84C 53.9365 11.5013 53.8405 12.0987 53.6485 12.632C 53.4565 13.1653 53.1845 13.624 52.8325 14.008C 52.4912 14.392 52.0805 14.6907 51.6005 14.904C 51.1205 15.1067 50.5978 15.208 50.0325 15.208C 49.4672 15.208 48.9445 15.1067 48.4645 14.904C 47.9845 14.6907 47.5685 14.392 47.2165 14.008C 46.8752 13.624 46.6085 13.1653 46.4165 12.632C 46.2245 12.0987 46.1285 11.5013 46.1285 10.84C 46.1285 10.1893 46.2245 9.59733 46.4165 9.064C 46.6085 8.52 46.8752 8.056 47.2165 7.672C 47.5685 7.288 47.9845 6.99467 48.4645 6.792C 48.9445 6.57867 49.4672 6.472 50.0325 6.472C 50.5978 6.472 51.1205 6.57867 51.6005 6.792C 52.0805 6.99467 52.4912 7.288 52.8325 7.672C 53.1845 8.056 53.4565 8.52 53.6485 9.064C 53.8405 9.59733 53.9365 10.1893 53.9365 10.84ZM 52.3845 10.84C 52.3845 9.90133 52.1712 9.16 51.7445 8.616C 51.3285 8.06133 50.7578 7.784 50.0325 7.784C 49.3072 7.784 48.7312 8.06133 48.3045 8.616C 47.8885 9.16 47.6805 9.90133 47.6805 10.84C 47.6805 11.7787 47.8885 12.5253 48.3045 13.08C 48.7312 13.624 49.3072 13.896 50.0325 13.896C 50.7578 13.896 51.3285 13.624 51.7445 13.08C 52.1712 12.5253 52.3845 11.7787 52.3845 10.84ZM 57.422 6.68L 60.574 6.68L 60.574 7.928L 57.422 7.928L 57.422 11.768C 57.422 12.184 57.454 12.5307 57.518 12.808C 57.582 13.0747 57.678 13.288 57.806 13.448C 57.934 13.5973 58.094 13.704 58.286 13.768C 58.478 13.832 58.702 13.864 58.958 13.864C 59.406 13.864 59.7633 13.816 60.03 13.72C 60.3073 13.6133 60.4993 13.5387 60.606 13.496L 60.894 14.728C 60.7447 14.8027 60.4833 14.8933 60.11 15C 59.7367 15.1173 59.31 15.176 58.83 15.176C 58.2647 15.176 57.7953 15.1067 57.422 14.968C 57.0593 14.8187 56.766 14.6 56.542 14.312C 56.318 14.024 56.158 13.672 56.062 13.256C 55.9767 12.8293 55.934 12.3387 55.934 11.784L 55.934 4.36L 57.422 4.104L 57.422 6.68ZM 60.9785 9.512L 64.9305 9.512L 64.9305 10.904L 60.9785 10.904L 60.9785 9.512ZM 66.1598 10.856C 66.1598 10.12 66.2664 9.48 66.4797 8.936C 66.6931 8.38133 66.9757 7.92267 67.3277 7.56C 67.6797 7.19733 68.0851 6.92533 68.5438 6.744C 69.0024 6.56267 69.4718 6.472 69.9518 6.472C 71.0718 6.472 71.9304 6.824 72.5277 7.528C 73.1251 8.22133 73.4237 9.28267 73.4237 10.712C 73.4237 10.776 73.4237 10.8613 73.4237 10.968C 73.4237 11.064 73.4184 11.1547 73.4077 11.24L 67.7117 11.24C 67.7757 12.104 68.0264 12.76 68.4638 13.208C 68.9011 13.656 69.5838 13.88 70.5118 13.88C 71.0344 13.88 71.4718 13.8373 71.8238 13.752C 72.1864 13.656 72.4584 13.5653 72.6398 13.48L 72.8478 14.728C 72.6664 14.824 72.3464 14.9253 71.8877 15.032C 71.4398 15.1387 70.9277 15.192 70.3517 15.192C 69.6264 15.192 68.9971 15.0853 68.4638 14.872C 67.9411 14.648 67.5091 14.344 67.1677 13.96C 66.8264 13.576 66.5704 13.1227 66.3997 12.6C 66.2398 12.0667 66.1598 11.4853 66.1598 10.856ZM 71.8718 10.04C 71.8824 9.368 71.7118 8.81867 71.3598 8.392C 71.0184 7.95467 70.5438 7.736 69.9357 7.736C 69.5944 7.736 69.2904 7.80533 69.0238 7.944C 68.7678 8.072 68.5491 8.24267 68.3678 8.456C 68.1864 8.66933 68.0424 8.91467 67.9357 9.192C 67.8397 9.46933 67.7758 9.752 67.7438 10.04L 71.8718 10.04ZM 75.5613 6.92C 75.9026 6.83467 76.3559 6.744 76.9213 6.648C 77.4866 6.552 78.1372 6.504 78.8732 6.504C 79.5346 6.504 80.0839 6.6 80.5212 6.792C 80.9586 6.97333 81.3053 7.23467 81.5613 7.576C 81.8279 7.90667 82.0146 8.30667 82.1213 8.776C 82.2279 9.24533 82.2812 9.76267 82.2812 10.328L 82.2812 15L 80.7933 15L 80.7933 10.648C 80.7933 10.136 80.7559 9.69867 80.6813 9.336C 80.6173 8.97333 80.5052 8.68 80.3452 8.456C 80.1852 8.232 79.9719 8.072 79.7053 7.976C 79.4386 7.86933 79.1079 7.816 78.7133 7.816C 78.5533 7.816 78.3879 7.82133 78.2173 7.832C 78.0466 7.84267 77.8812 7.85867 77.7212 7.88C 77.5719 7.89067 77.4333 7.90667 77.3053 7.928C 77.1879 7.94933 77.1026 7.96533 77.0493 7.976L 77.0493 15L 75.5613 15L 75.5613 6.92ZM 89.9647 14.168C 89.8367 14.2533 89.5861 14.3653 89.2127 14.504C 88.8501 14.632 88.4234 14.696 87.9327 14.696C 87.4314 14.696 86.9567 14.616 86.5088 14.456C 86.0714 14.296 85.6874 14.0507 85.3568 13.72C 85.0261 13.3787 84.7647 12.9573 84.5727 12.456C 84.3808 11.9547 84.2848 11.3573 84.2848 10.664C 84.2848 10.056 84.3754 9.50133 84.5567 9C 84.7381 8.488 84.9994 8.05067 85.3407 7.688C 85.6928 7.31467 86.1194 7.02667 86.6208 6.824C 87.1221 6.61067 87.6874 6.504 88.3167 6.504C 89.0101 6.504 89.6128 6.55733 90.1248 6.664C 90.6474 6.76 91.0847 6.85067 91.4368 6.936L 91.4368 14.36C 91.4368 15.64 91.1061 16.568 90.4447 17.144C 89.7834 17.72 88.7807 18.008 87.4368 18.008C 86.9141 18.008 86.4181 17.9653 85.9488 17.88C 85.4901 17.7947 85.0901 17.6933 84.7488 17.576L 85.0208 16.28C 85.3194 16.3973 85.6821 16.4987 86.1088 16.584C 86.5461 16.68 86.9994 16.728 87.4688 16.728C 88.3541 16.728 88.9887 16.552 89.3727 16.2C 89.7674 15.848 89.9647 15.288 89.9647 14.52L 89.9647 14.168ZM 89.9488 7.992C 89.7994 7.94933 89.5968 7.912 89.3407 7.88C 89.0954 7.83733 88.7594 7.816 88.3328 7.816C 87.5328 7.816 86.9141 8.07733 86.4767 8.6C 86.0501 9.12267 85.8367 9.816 85.8367 10.68C 85.8367 11.16 85.8954 11.5707 86.0127 11.912C 86.1407 12.2533 86.3061 12.536 86.5088 12.76C 86.7221 12.984 86.9621 13.1493 87.2288 13.256C 87.5061 13.3627 87.7888 13.416 88.0768 13.416C 88.4714 13.416 88.8341 13.3627 89.1647 13.256C 89.4954 13.1387 89.7568 13.0053 89.9488 12.856L 89.9488 7.992ZM 95.4868 15L 93.9988 15L 93.9988 6.68L 95.4868 6.68L 95.4868 15ZM 94.7348 5.176C 94.4681 5.176 94.2387 5.09067 94.0468 4.92C 93.8654 4.73867 93.7747 4.49867 93.7747 4.2C 93.7747 3.90133 93.8654 3.66667 94.0468 3.496C 94.2387 3.31467 94.4681 3.224 94.7348 3.224C 95.0014 3.224 95.2254 3.31467 95.4068 3.496C 95.5987 3.66667 95.6947 3.90133 95.6947 4.2C 95.6947 4.49867 95.5987 4.73867 95.4068 4.92C 95.2254 5.09067 95.0014 5.176 94.7348 5.176ZM 98.0456 6.92C 98.387 6.83467 98.8403 6.744 99.4056 6.648C 99.971 6.552 100.622 6.504 101.358 6.504C 102.019 6.504 102.568 6.6 103.006 6.792C 103.443 6.97333 103.79 7.23467 104.046 7.576C 104.312 7.90667 104.499 8.30667 104.606 8.776C 104.712 9.24533 104.766 9.76267 104.766 10.328L 104.766 15L 103.278 15L 103.278 10.648C 103.278 10.136 103.24 9.69867 103.166 9.336C 103.102 8.97333 102.99 8.68 102.83 8.456C 102.67 8.232 102.456 8.072 102.19 7.976C 101.923 7.86933 101.592 7.816 101.198 7.816C 101.038 7.816 100.872 7.82133 100.702 7.832C 100.531 7.84267 100.366 7.85867 100.206 7.88C 100.056 7.89067 99.9176 7.90667 99.7896 7.928C 99.6723 7.94933 99.587 7.96533 99.5336 7.976L 99.5336 15L 98.0456 15L 98.0456 6.92ZM 106.769 10.856C 106.769 10.12 106.876 9.48 107.089 8.936C 107.302 8.38133 107.585 7.92267 107.937 7.56C 108.289 7.19733 108.694 6.92533 109.153 6.744C 109.612 6.56267 110.081 6.472 110.561 6.472C 111.681 6.472 112.54 6.824 113.137 7.528C 113.734 8.22133 114.033 9.28267 114.033 10.712C 114.033 10.776 114.033 10.8613 114.033 10.968C 114.033 11.064 114.028 11.1547 114.017 11.24L 108.321 11.24C 108.385 12.104 108.636 12.76 109.073 13.208C 109.51 13.656 110.193 13.88 111.121 13.88C 111.644 13.88 112.081 13.8373 112.433 13.752C 112.796 13.656 113.068 13.5653 113.249 13.48L 113.457 14.728C 113.276 14.824 112.956 14.9253 112.497 15.032C 112.049 15.1387 111.537 15.192 110.961 15.192C 110.236 15.192 109.606 15.0853 109.073 14.872C 108.55 14.648 108.118 14.344 107.777 13.96C 107.436 13.576 107.18 13.1227 107.009 12.6C 106.849 12.0667 106.769 11.4853 106.769 10.856ZM 112.481 10.04C 112.492 9.368 112.321 8.81867 111.969 8.392C 111.628 7.95467 111.153 7.736 110.545 7.736C 110.204 7.736 109.9 7.80533 109.633 7.944C 109.377 8.072 109.158 8.24267 108.977 8.456C 108.796 8.66933 108.652 8.91467 108.545 9.192C 108.449 9.46933 108.385 9.752 108.353 10.04L 112.481 10.04ZM 115.707 10.856C 115.707 10.12 115.813 9.48 116.027 8.936C 116.24 8.38133 116.523 7.92267 116.875 7.56C 117.227 7.19733 117.632 6.92533 118.091 6.744C 118.549 6.56267 119.019 6.472 119.499 6.472C 120.619 6.472 121.477 6.824 122.075 7.528C 122.672 8.22133 122.971 9.28267 122.971 10.712C 122.971 10.776 122.971 10.8613 122.971 10.968C 122.971 11.064 122.965 11.1547 122.955 11.24L 117.259 11.24C 117.323 12.104 117.573 12.76 118.011 13.208C 118.448 13.656 119.131 13.88 120.059 13.88C 120.581 13.88 121.019 13.8373 121.371 13.752C 121.733 13.656 122.005 13.5653 122.187 13.48L 122.395 14.728C 122.213 14.824 121.893 14.9253 121.435 15.032C 120.987 15.1387 120.475 15.192 119.899 15.192C 119.173 15.192 118.544 15.0853 118.011 14.872C 117.488 14.648 117.056 14.344 116.715 13.96C 116.373 13.576 116.117 13.1227 115.947 12.6C 115.787 12.0667 115.707 11.4853 115.707 10.856ZM 121.419 10.04C 121.429 9.368 121.259 8.81867 120.907 8.392C 120.565 7.95467 120.091 7.736 119.483 7.736C 119.141 7.736 118.837 7.80533 118.571 7.944C 118.315 8.072 118.096 8.24267 117.915 8.456C 117.733 8.66933 117.589 8.91467 117.483 9.192C 117.387 9.46933 117.323 9.752 117.291 10.04L 121.419 10.04ZM 128.18 6.504C 128.308 6.504 128.452 6.51467 128.612 6.536C 128.783 6.54667 128.948 6.568 129.108 6.6C 129.268 6.62133 129.412 6.648 129.54 6.68C 129.679 6.70133 129.78 6.72267 129.844 6.744L 129.588 8.04C 129.471 7.99733 129.273 7.94933 128.996 7.896C 128.729 7.832 128.383 7.8 127.956 7.8C 127.679 7.8 127.401 7.832 127.124 7.896C 126.857 7.94933 126.681 7.98667 126.596 8.008L 126.596 15L 125.108 15L 125.108 7.032C 125.46 6.904 125.897 6.78667 126.42 6.68C 126.943 6.56267 127.529 6.504 128.18 6.504ZM 132.768 15L 131.28 15L 131.28 6.68L 132.768 6.68L 132.768 15ZM 132.016 5.176C 131.749 5.176 131.52 5.09067 131.328 4.92C 131.147 4.73867 131.056 4.49867 131.056 4.2C 131.056 3.90133 131.147 3.66667 131.328 3.496C 131.52 3.31467 131.749 3.224 132.016 3.224C 132.283 3.224 132.507 3.31467 132.688 3.496C 132.88 3.66667 132.976 3.90133 132.976 4.2C 132.976 4.49867 132.88 4.73867 132.688 4.92C 132.507 5.09067 132.283 5.176 132.016 5.176ZM 135.327 6.92C 135.668 6.83467 136.122 6.744 136.687 6.648C 137.252 6.552 137.903 6.504 138.639 6.504C 139.3 6.504 139.85 6.6 140.287 6.792C 140.724 6.97333 141.071 7.23467 141.327 7.576C 141.594 7.90667 141.78 8.30667 141.887 8.776C 141.994 9.24533 142.047 9.76267 142.047 10.328L 142.047 15L 140.559 15L 140.559 10.648C 140.559 10.136 140.522 9.69867 140.447 9.336C 140.383 8.97333 140.271 8.68 140.111 8.456C 139.951 8.232 139.738 8.072 139.471 7.976C 139.204 7.86933 138.874 7.816 138.479 7.816C 138.319 7.816 138.154 7.82133 137.983 7.832C 137.812 7.84267 137.647 7.85867 137.487 7.88C 137.338 7.89067 137.199 7.90667 137.071 7.928C 136.954 7.94933 136.868 7.96533 136.815 7.976L 136.815 15L 135.327 15L 135.327 6.92ZM 149.73 14.168C 149.602 14.2533 149.352 14.3653 148.978 14.504C 148.616 14.632 148.189 14.696 147.698 14.696C 147.197 14.696 146.722 14.616 146.274 14.456C 145.837 14.296 145.453 14.0507 145.122 13.72C 144.792 13.3787 144.53 12.9573 144.338 12.456C 144.146 11.9547 144.05 11.3573 144.05 10.664C 144.05 10.056 144.141 9.50133 144.322 9C 144.504 8.488 144.765 8.05067 145.106 7.688C 145.458 7.31467 145.885 7.02667 146.386 6.824C 146.888 6.61067 147.453 6.504 148.082 6.504C 148.776 6.504 149.378 6.55733 149.89 6.664C 150.413 6.76 150.85 6.85067 151.202 6.936L 151.202 14.36C 151.202 15.64 150.872 16.568 150.21 17.144C 149.549 17.72 148.546 18.008 147.202 18.008C 146.68 18.008 146.184 17.9653 145.714 17.88C 145.256 17.7947 144.856 17.6933 144.514 17.576L 144.786 16.28C 145.085 16.3973 145.448 16.4987 145.874 16.584C 146.312 16.68 146.765 16.728 147.234 16.728C 148.12 16.728 148.754 16.552 149.138 16.2C 149.533 15.848 149.73 15.288 149.73 14.52L 149.73 14.168ZM 149.714 7.992C 149.565 7.94933 149.362 7.912 149.106 7.88C 148.861 7.83733 148.525 7.816 148.098 7.816C 147.298 7.816 146.68 8.07733 146.242 8.6C 145.816 9.12267 145.602 9.816 145.602 10.68C 145.602 11.16 145.661 11.5707 145.778 11.912C 145.906 12.2533 146.072 12.536 146.274 12.76C 146.488 12.984 146.728 13.1493 146.994 13.256C 147.272 13.3627 147.554 13.416 147.842 13.416C 148.237 13.416 148.6 13.3627 148.93 13.256C 149.261 13.1387 149.522 13.0053 149.714 12.856L 149.714 7.992ZM 155.524 14.136C 155.524 14.424 155.428 14.6747 155.236 14.888C 155.044 15.1013 154.783 15.208 154.452 15.208C 154.122 15.208 153.86 15.1013 153.668 14.888C 153.476 14.6747 153.38 14.424 153.38 14.136C 153.38 13.848 153.476 13.5973 153.668 13.384C 153.86 13.1707 154.122 13.064 154.452 13.064C 154.783 13.064 155.044 13.1707 155.236 13.384C 155.428 13.5973 155.524 13.848 155.524 14.136ZM 160.198 15.16C 159.281 15.1387 158.63 14.9413 158.246 14.568C 157.862 14.1947 157.67 13.6133 157.67 12.824L 157.67 2.84L 159.158 2.584L 159.158 12.584C 159.158 12.8293 159.179 13.032 159.222 13.192C 159.265 13.352 159.334 13.48 159.43 13.576C 159.526 13.672 159.654 13.7467 159.814 13.8C 159.974 13.8427 160.171 13.88 160.406 13.912L 160.198 15.16ZM 163.565 15L 162.077 15L 162.077 6.68L 163.565 6.68L 163.565 15ZM 162.813 5.176C 162.546 5.176 162.317 5.09067 162.125 4.92C 161.944 4.73867 161.853 4.49867 161.853 4.2C 161.853 3.90133 161.944 3.66667 162.125 3.496C 162.317 3.31467 162.546 3.224 162.813 3.224C 163.08 3.224 163.304 3.31467 163.485 3.496C 163.677 3.66667 163.773 3.90133 163.773 4.2C 163.773 4.49867 163.677 4.73867 163.485 4.92C 163.304 5.09067 163.08 5.176 162.813 5.176ZM 169.372 2.584C 169.809 2.584 170.182 2.616 170.492 2.68C 170.812 2.744 171.036 2.80267 171.164 2.856L 170.892 4.136C 170.764 4.072 170.582 4.01333 170.348 3.96C 170.113 3.896 169.825 3.864 169.484 3.864C 168.79 3.864 168.305 4.056 168.028 4.44C 167.75 4.81333 167.612 5.32 167.612 5.96L 167.612 6.68L 170.812 6.68L 170.812 7.928L 167.612 7.928L 167.612 15L 166.124 15L 166.124 5.928C 166.124 4.86133 166.385 4.04 166.908 3.464C 167.43 2.87733 168.252 2.584 169.372 2.584ZM 171.832 10.856C 171.832 10.12 171.938 9.48 172.152 8.936C 172.365 8.38133 172.648 7.92267 173 7.56C 173.352 7.19733 173.757 6.92533 174.216 6.744C 174.674 6.56267 175.144 6.472 175.624 6.472C 176.744 6.472 177.602 6.824 178.2 7.528C 178.797 8.22133 179.096 9.28267 179.096 10.712C 179.096 10.776 179.096 10.8613 179.096 10.968C 179.096 11.064 179.09 11.1547 179.08 11.24L 173.384 11.24C 173.448 12.104 173.698 12.76 174.136 13.208C 174.573 13.656 175.256 13.88 176.184 13.88C 176.706 13.88 177.144 13.8373 177.496 13.752C 177.858 13.656 178.13 13.5653 178.312 13.48L 178.52 14.728C 178.338 14.824 178.018 14.9253 177.56 15.032C 177.112 15.1387 176.6 15.192 176.024 15.192C 175.298 15.192 174.669 15.0853 174.136 14.872C 173.613 14.648 173.181 14.344 172.84 13.96C 172.498 13.576 172.242 13.1227 172.072 12.6C 171.912 12.0667 171.832 11.4853 171.832 10.856ZM 177.544 10.04C 177.554 9.368 177.384 8.81867 177.032 8.392C 176.69 7.95467 176.216 7.736 175.608 7.736C 175.266 7.736 174.962 7.80533 174.696 7.944C 174.44 8.072 174.221 8.24267 174.04 8.456C 173.858 8.66933 173.714 8.91467 173.608 9.192C 173.512 9.46933 173.448 9.752 173.416 10.04L 177.544 10.04Z"/>
<path id="path2_fill" d="M 10.0004 2.6336e-08C 4.47734 2.6336e-08 2.01393e-08 4.47815 2.01393e-08 10.0004C 2.01393e-08 15.5235 4.47734 20 10.0004 20C 15.5235 20 20 15.5235 20 10.0004C 20 4.47815 15.5231 2.6336e-08 10.0004 2.6336e-08ZM 15.0378 7.98408C 15.043 8.09211 15.0451 8.20054 15.0451 8.31019C 15.0451 11.6407 12.5102 15.4804 7.87484 15.4804C 6.45184 15.4804 5.12671 15.0634 4.01153 14.3486C 4.2089 14.3717 4.40911 14.3835 4.61257 14.3835C 5.79353 14.3835 6.88028 13.9807 7.74245 13.3049C 6.63986 13.2842 5.70947 12.5552 5.38865 11.5542C 5.54215 11.5842 5.70013 11.5993 5.86257 11.5993C 6.09243 11.5993 6.31498 11.5692 6.52656 11.5111C 5.37321 11.2796 4.50455 10.2603 4.50455 9.04037C 4.50455 9.0294 4.50455 9.01884 4.50495 9.00788C 4.84446 9.19672 5.23311 9.31002 5.64652 9.32342C 4.96995 8.87061 4.52526 8.10023 4.52526 7.22547C 4.52526 6.76373 4.64953 6.33041 4.86639 5.95841C 6.10949 7.48294 7.96662 8.48644 10.0613 8.59121C 10.0183 8.40725 9.99594 8.21434 9.99594 8.01698C 9.99594 6.62565 11.1241 5.49708 12.5162 5.49708C 13.2411 5.49708 13.8958 5.80328 14.3555 6.29264C 14.9297 6.18015 15.4691 5.96979 15.956 5.68104C 15.7671 6.2699 15.3679 6.76373 14.8473 7.07521C 15.3578 7.0143 15.8435 6.87865 16.2951 6.67844C 15.958 7.18486 15.5304 7.62874 15.0378 7.98408Z"/>
<path id="path3_fill" d="M 3.23 0C 3.23 0 3.23 1.07062e-23 3.23 0C 3.92035 1.26816e-16 4.48 0.559644 4.48 1.25C 4.48 1.25 4.48 1.25 4.48 1.25L 4.48 2.59C 4.48 3.28036 3.92035 3.84 3.23 3.84C 3.23 3.84 3.23 3.84 3.23 3.84L 1.92 3.84C 0.859614 3.84 0 2.98039 0 1.92C 0 0.859614 0.859614 0 1.92 0L 3.23 0Z"/>
<path id="path4_fill" d="M 3.23 5.44C 3.23 5.44 3.23 5.44 3.23 5.44C 3.92035 5.44 4.48 5.99965 4.48 6.69L 4.48 8.03001C 4.48 8.72036 3.92035 9.28001 3.23 9.28001C 3.23 9.28001 3.23 9.28001 3.23 9.28001L 1.92 9.28001C 0.859614 9.28001 0 8.42039 0 7.36001C 0 6.29962 0.859614 5.44 1.92 5.44L 3.23 5.44Z"/>
<path id="path5_fill" d="M 3.23 11.2C 3.23 11.2 3.23 11.2 3.23 11.2C 3.92035 11.2 4.48 11.7597 4.48 12.45L 4.48 13.79C 4.48 14.4804 3.92035 15.04 3.23 15.04C 3.23 15.04 3.23 15.04 3.23 15.04L 1.92 15.04C 0.859614 15.04 0 14.1804 0 13.12C 0 12.0596 0.859614 11.2 1.92 11.2L 3.23 11.2Z"/>
<path id="path6_fill" d="M 3.23 16.64C 3.23 16.64 3.23 16.64 3.23 16.64C 3.92035 16.64 4.48 17.1996 4.48 17.89C 4.48 17.89 4.48 17.89 4.48 17.89L 4.48 19.23C 4.48 19.9203 3.92035 20.48 3.23 20.48C 3.23 20.48 3.23 20.48 3.23 20.48L 1.92 20.48C 0.859614 20.48 0 19.6204 0 18.56C 0 17.4996 0.859614 16.64 1.92 16.64L 3.23 16.64Z"/>
<path id="path7_fill" d="M 20.48 3.23C 20.48 3.23 20.48 3.23 20.48 3.23C 20.48 3.92036 19.9204 4.48 19.23 4.48L 17.89 4.48C 17.1996 4.48 16.64 3.92036 16.64 3.23C 16.64 3.23 16.64 3.23 16.64 3.23L 16.64 1.92C 16.64 0.859613 17.4996 0 18.56 0C 19.6204 0 20.48 0.859613 20.48 1.92L 20.48 3.23Z"/>
<path id="path8_fill" d="M 15.04 3.23C 15.04 3.23 15.04 3.23 15.04 3.23C 15.04 3.92036 14.4804 4.48 13.79 4.48L 12.45 4.48C 11.7596 4.48 11.2 3.92036 11.2 3.23C 11.2 3.23 11.2 3.23 11.2 3.23L 11.2 1.92C 11.2 0.859613 12.0596 0 13.12 0C 14.1804 0 15.04 0.859613 15.04 1.92L 15.04 3.23Z"/>
<path id="path9_fill" d="M 9.28 3.23C 9.28 3.23 9.28 3.23 9.28 3.23C 9.28 3.92036 8.72035 4.48 8.03 4.48L 6.69 4.48C 5.99964 4.48 5.44 3.92036 5.44 3.23C 5.44 3.23 5.44 3.23 5.44 3.23L 5.44 1.92C 5.44 0.859613 6.29961 0 7.36 0C 8.42038 0 9.28 0.859613 9.28 1.92L 9.28 3.23Z"/>
<path id="path10_fill" d="M 3.84 3.23C 3.84 3.23 3.84 3.23 3.84 3.23C 3.84 3.92036 3.28035 4.48 2.59 4.48L 1.25 4.48C 1.25 4.48 1.25 4.48 1.25 4.48C 0.559644 4.48 -8.45442e-17 3.92036 0 3.23C -7.13746e-24 3.23 0 3.23 0 3.23L 0 1.92C 0 0.859613 0.859613 0 1.92 0C 2.98039 0 3.84 0.859613 3.84 1.92L 3.84 3.23Z"/>
<path id="path11_fill" d="M 0 1.25C 0 1.25 0 1.25 0 1.25C 0 0.559644 0.559644 0 1.25 0C 1.25 0 1.25 0 1.25 0L 2.59 0C 3.28035 0 3.84 0.559644 3.84 1.25C 3.84 1.25 3.84 1.25 3.84 1.25L 3.84 2.56C 3.84 3.62039 2.98039 4.48 1.92 4.48C 0.859613 4.48 0 3.62039 0 2.56L 0 1.25Z"/>
<path id="path12_fill" d="M 5.44 1.25C 5.44 1.25 5.44 1.25 5.44 1.25C 5.44 0.559644 5.99964 0 6.69 0L 8.03 0C 8.72035 0 9.28 0.559644 9.28 1.25C 9.28 1.25 9.28 1.25 9.28 1.25L 9.28 2.56C 9.28 3.62039 8.42038 4.48 7.36 4.48C 6.29961 4.48 5.44 3.62039 5.44 2.56L 5.44 1.25Z"/>
<path id="path13_fill" d="M 11.2 1.25C 11.2 1.25 11.2 1.25 11.2 1.25C 11.2 0.559644 11.7596 0 12.45 0L 13.79 0C 14.4804 0 15.04 0.559644 15.04 1.25C 15.04 1.25 15.04 1.25 15.04 1.25L 15.04 2.56C 15.04 3.62039 14.1804 4.48 13.12 4.48C 12.0596 4.48 11.2 3.62039 11.2 2.56L 11.2 1.25Z"/>
<path id="path14_fill" d="M 16.64 1.25C 16.64 1.25 16.64 1.25 16.64 1.25C 16.64 0.559644 17.1996 0 17.89 0L 19.23 0C 19.9204 0 20.48 0.559644 20.48 1.25C 20.48 1.25 20.48 1.25 20.48 1.25L 20.48 2.56C 20.48 3.62039 19.6204 4.48 18.56 4.48C 17.4996 4.48 16.64 3.62039 16.64 2.56L 16.64 1.25Z"/>
<path id="path15_fill" d="M 1.25 20.48C 1.25 20.48 1.25 20.48 1.25 20.48C 0.559644 20.48 -4.22721e-17 19.9203 0 19.23C -3.56873e-24 19.23 0 19.23 0 19.23L 0 17.89C 0 17.89 3.56873e-24 17.89 0 17.89C 4.22721e-17 17.1996 0.559644 16.64 1.25 16.64C 1.25 16.64 1.25 16.64 1.25 16.64L 2.56 16.64C 3.62038 16.64 4.48 17.4996 4.48 18.56C 4.48 19.6204 3.62038 20.48 2.56 20.48L 1.25 20.48Z"/>
<path id="path16_fill" d="M 1.25 15.04C 1.25 15.04 1.25 15.04 1.25 15.04C 0.559644 15.04 -4.22721e-17 14.4803 0 13.79C -3.56873e-24 13.79 0 13.79 0 13.79L 0 12.45C 0 12.45 3.56873e-24 12.45 0 12.45C 4.22721e-17 11.7596 0.559644 11.2 1.25 11.2C 1.25 11.2 1.25 11.2 1.25 11.2L 2.56 11.2C 3.62038 11.2 4.48 12.0596 4.48 13.12C 4.48 14.1804 3.62038 15.04 2.56 15.04L 1.25 15.04Z"/>
<path id="path17_fill" d="M 1.25 9.27998C 1.25 9.27998 1.25 9.27998 1.25 9.27998C 0.559644 9.27998 -4.22721e-17 8.72033 0 8.02997C -3.56873e-24 8.02997 0 8.02997 0 8.02997L 0 6.68997C 0 6.68997 3.56873e-24 6.68997 0 6.68997C 4.22721e-17 5.99962 0.559644 5.43997 1.25 5.43997C 1.25 5.43997 1.25 5.43997 1.25 5.43997L 2.56 5.43997C 3.62038 5.43997 4.48 6.29959 4.48 7.35997C 4.48 8.42036 3.62038 9.27998 2.56 9.27998L 1.25 9.27998Z"/>
<path id="path18_fill" d="M 1.25 3.84C 1.25 3.84 1.25 3.84 1.25 3.84C 0.559644 3.84 -4.22721e-17 3.28036 0 2.59C -3.56873e-24 2.59 0 2.59 0 2.59L 0 1.25C 0 1.25 3.56873e-24 1.25 0 1.25C 4.22721e-17 0.559644 0.559644 -4.22721e-17 1.25 0C 1.25 -3.56874e-24 1.25 0 1.25 0L 2.56 0C 3.62038 0 4.48 0.859614 4.48 1.92C 4.48 2.98039 3.62038 3.84 2.56 3.84L 1.25 3.84Z"/>
<path id="path19_fill" d="M 0 2C 0 0.89543 0.895431 0 2 0L 23.6 0C 24.7046 0 25.6 0.89543 25.6 2L 25.6 23.6C 25.6 24.7046 24.7046 25.6 23.6 25.6L 2 25.6C 0.895431 25.6 0 24.7046 0 23.6L 0 2Z"/>
<path id="path20_fill" d="M 0 2C 0 0.895431 0.895431 0 2 0L 17.84 0C 18.9446 0 19.84 0.895431 19.84 2L 19.84 17.84C 19.84 18.9446 18.9446 19.84 17.84 19.84L 2 19.84C 0.895431 19.84 0 18.9446 0 17.84L 0 2Z"/>
</defs>
</svg>
